<svg width="31" height="32" viewBox="0 0 31 32" fill="none" xmlns="http://www.w3.org/2000/svg">
<path d="M30.0848 16.8028L28.4021 14.1468L29.3992 11.1651C29.5623 10.6771 29.3581 10.1362 28.9131 9.87837L26.1873 8.30913L25.6859 5.20451C25.6043 4.69743 25.1712 4.31433 24.6572 4.29361L21.5154 4.17029L19.6282 1.65497C19.3198 1.23996 18.7584 1.10185 18.2941 1.32579L15.4555 2.67668L12.6156 1.32612C12.1523 1.10415 11.5909 1.24227 11.2818 1.65464L9.39392 4.17062L6.25247 4.29394C5.73685 4.31466 5.30474 4.69809 5.22483 5.20484L4.72269 8.30946L1.99821 9.87903C1.5523 10.1365 1.3471 10.6778 1.50988 11.1651L2.50759 14.1471L0.825885 16.8032C0.549656 17.2382 0.619042 17.8121 0.991294 18.1666L3.26032 20.3425L3.00546 23.4754C2.96403 23.9891 3.29287 24.4656 3.7868 24.6076L6.80723 25.4778L8.03744 28.3719C8.24034 28.8514 8.75169 29.1187 9.2535 29.0118L12.3338 28.3801L14.7672 30.3726C14.9622 30.5311 15.2066 30.6182 15.4555 30.6182C15.7028 30.6182 15.9471 30.5311 16.1441 30.3723L18.5772 28.3801L21.6565 29.0115C22.1613 29.1174 22.6733 28.8494 22.8726 28.3722L24.1035 25.4778L27.1245 24.6076C27.6185 24.4659 27.9467 23.9894 27.9049 23.4754L27.6507 20.3425L29.9191 18.1669C30.2916 17.8114 30.3617 17.2379 30.0848 16.8028ZM27.3699 20.161C27.3343 20.1949 27.3163 20.2429 27.3202 20.2916L27.5807 23.5014C27.6099 23.8621 27.3804 24.1959 27.0344 24.2952L23.9387 25.1867C23.8917 25.2005 23.8532 25.2344 23.8341 25.2795L22.573 28.246C22.4329 28.5801 22.0768 28.7685 21.7226 28.6932L18.5664 28.0464C18.5187 28.0368 18.4687 28.0493 18.4309 28.0799L15.9392 30.12C15.6614 30.3443 15.2457 30.342 14.9734 30.121L12.4805 28.0799C12.4512 28.0559 12.4147 28.0431 12.3775 28.0431C12.3667 28.0431 12.3555 28.0441 12.345 28.0464L9.18708 28.6939C8.83752 28.7678 8.47973 28.5811 8.33735 28.2453L7.07656 25.2795C7.05748 25.2344 7.01901 25.2002 6.97198 25.1867L3.87723 24.2952C3.53096 24.1956 3.30077 23.8618 3.3297 23.5017L3.59081 20.2919C3.59508 20.2429 3.577 20.1949 3.54115 20.161L1.21589 17.9311C0.95545 17.6832 0.906781 17.282 1.10047 16.9771L2.82394 14.2556C2.84992 14.2142 2.85617 14.1635 2.84071 14.1172L1.81867 11.0619C1.70423 10.7205 1.84859 10.3411 2.16099 10.1609L4.95255 8.5528C4.99464 8.52847 5.02391 8.48605 5.03147 8.43771L5.54611 5.25614C5.60202 4.90132 5.90423 4.63331 6.2653 4.61884L9.48403 4.49256C9.53302 4.49059 9.5784 4.46691 9.608 4.42745L11.5423 1.84964C11.758 1.56124 12.1513 1.46456 12.4755 1.61978L15.3855 3.00356C15.4299 3.0246 15.4808 3.0246 15.5252 3.00356L18.4345 1.61945C18.7587 1.46259 19.1511 1.55927 19.3671 1.84964L21.3014 4.42745C21.331 4.46691 21.3763 4.49059 21.4253 4.49256L24.6444 4.61884C25.0045 4.63298 25.3077 4.90132 25.3652 5.25647L25.8789 8.43738C25.8864 8.48572 25.9157 8.52781 25.9581 8.55247L28.7507 10.1602C29.0624 10.3407 29.2051 10.7199 29.0904 11.0619L28.069 14.1168C28.0539 14.1632 28.0598 14.2142 28.0861 14.2553L29.8105 16.9768C29.8105 16.9768 29.8105 16.9768 29.8105 16.9771C30.0039 17.2813 29.9552 17.6828 29.6945 17.9311L27.3699 20.161Z" fill="#27201D" stroke="#27201D" stroke-width="1.25"/>
<path d="M7.88037 16.388L12.577 21.0846C12.7746 21.2822 13.0959 21.2795 13.2901 21.0786L23.4103 10.6094" stroke="#27201D" stroke-width="2" stroke-linecap="round"/>
</svg>
