<svg width="31" height="31" viewBox="0 0 31 31" fill="none" xmlns="http://www.w3.org/2000/svg">
<path d="M15.7808 0.219238C24.0514 0.219238 30.7808 6.94824 30.7808 15.2192C30.7808 23.4902 24.0514 30.2192 15.7808 30.2192C7.51009 30.2192 0.780762 23.4902 0.780762 15.2192C0.780762 6.94824 7.50976 0.219238 15.7808 0.219238ZM17.1831 0.965572C19.3864 2.3979 21.1641 4.6469 22.3471 7.39424C23.7541 6.92891 25.0894 6.30924 26.3304 5.54357C24.0081 3.0129 20.7898 1.31757 17.1831 0.965572ZM26.7824 6.05957C25.4821 6.87224 24.0811 7.52924 22.6044 8.02124C23.4068 10.0936 23.8788 12.4226 23.9558 14.8812H30.0954C30.0174 11.5319 28.7874 8.46324 26.7824 6.05957ZM26.7824 24.3792C28.7871 21.9752 30.0174 18.9069 30.0954 15.5576H23.9561C23.8808 18.0166 23.4101 20.3459 22.6084 22.4192C24.0834 22.9112 25.4828 23.5672 26.7824 24.3792ZM26.3304 24.8952C25.0904 24.1306 23.7564 23.5116 22.3514 23.0466C21.1714 25.7906 19.3974 28.0389 17.1974 29.4719C20.7984 29.1166 24.0108 27.4222 26.3304 24.8952ZM16.1191 29.3276C18.5188 28.0232 20.4514 25.7276 21.7038 22.8446C19.9298 22.3246 18.0528 22.0446 16.1191 22.0156V29.3276ZM16.1191 21.3389C18.1424 21.3682 20.1071 21.6652 21.9628 22.2162C22.7431 20.2102 23.2034 17.9496 23.2791 15.5576H16.1191V21.3389ZM16.1191 14.8809H23.2791C23.2024 12.4899 22.7408 10.2292 21.9594 8.22357C20.1048 8.77424 18.1418 9.0709 16.1191 9.10057V14.8809ZM16.1191 8.42424C18.0514 8.39457 19.9274 8.1149 21.6998 7.59557C20.4474 4.71657 18.5161 2.42324 16.1191 1.1189V8.42424ZM5.23076 5.54357C6.47209 6.30891 7.8071 6.92891 9.21376 7.39391C10.3968 4.64724 12.1744 2.39757 14.3781 0.965238C10.7714 1.31757 7.55343 3.0129 5.23076 5.54357ZM15.4424 1.1189C13.0458 2.4229 11.1144 4.71624 9.86176 7.59557C11.6344 8.11524 13.5101 8.39457 15.4424 8.42424V1.1189ZM15.4424 9.10091C13.4201 9.07091 11.4568 8.77457 9.60209 8.22424C8.82109 10.2292 8.35909 12.4896 8.28209 14.8812H15.4421V9.10091H15.4424ZM15.4424 15.5576H8.28243C8.35743 17.9492 8.81776 20.2109 9.59876 22.2172C11.4541 21.6659 13.4184 21.3689 15.4424 21.3389V15.5576ZM15.4424 22.0156C13.5084 22.0452 11.6314 22.3256 9.85743 22.8456C11.1098 25.7276 13.0428 28.0232 15.4424 29.3276V22.0156ZM14.3638 29.4719C12.1641 28.0389 10.3904 25.7912 9.21076 23.0472C7.80543 23.5122 6.47176 24.1316 5.23143 24.8962C7.55143 27.4226 10.7634 29.1166 14.3638 29.4719ZM4.78009 24.3799C6.07909 23.5682 7.47876 22.9122 8.95376 22.4199C8.15243 20.3466 7.68109 18.0172 7.60543 15.5576H1.46609C1.54409 18.9069 2.77443 21.9762 4.78009 24.3799ZM1.46609 14.8809H7.60543C7.68176 12.4226 8.15409 10.0936 8.95676 8.02091C7.48009 7.52891 6.07943 6.87191 4.77943 6.05957C2.7741 8.46324 1.54409 11.5319 1.46609 14.8809Z" fill="#27201D" stroke="#27201D" stroke-width="0.3"/>
</svg>
