<svg width="30" height="30" viewBox="0 0 30 30" fill="none" xmlns="http://www.w3.org/2000/svg">
<path d="M29.0336 28.473H26.3311L25.3033 26.6402V21.6377C25.3033 20.4589 24.5486 19.4311 23.4202 19.0789L19.1149 17.7421V13.178C19.1149 12.7539 18.9927 12.3586 18.7699 12.0208C19.9917 11.5967 20.8758 10.4396 20.8758 9.07393C20.8758 7.44955 19.6252 6.11268 18.0367 5.96893V3.65455C18.0296 2.10205 16.7717 0.844238 15.2192 0.844238C14.9102 0.844238 14.6586 1.0958 14.6586 1.40486V5.88986H14.6514C14.1627 5.87549 13.7027 6.06236 13.3505 6.40018C12.9983 6.73799 12.7971 7.19799 12.7899 7.67955C12.7683 8.6858 13.5733 9.51955 14.5867 9.54111H14.6227C14.5221 10.4611 14.2561 11.3667 13.8177 12.2005C13.6667 12.4952 13.5805 12.833 13.5805 13.1708V18.0008L12.2292 20.4374L4.97705 25.0014C4.28705 25.4327 3.87736 26.1802 3.87736 26.9924V28.473H1.40486C1.0958 28.473 0.844238 28.7246 0.844238 29.0336C0.844238 29.3427 1.0958 29.5942 1.40486 29.5942H29.0336C29.3427 29.5942 29.5942 29.3427 29.5942 29.0336C29.5942 28.7246 29.3427 28.473 29.0336 28.473ZM19.7474 9.07393C19.7474 10.0802 18.9999 10.9139 18.0296 11.0505V7.09736C18.9999 7.23393 19.7474 8.06768 19.7474 9.07393ZM15.7799 2.06611C16.4339 2.29611 16.9083 2.92143 16.9083 3.65455V11.6974C16.9083 11.9417 17.0664 12.1574 17.3036 12.2292C17.7133 12.3586 17.9936 12.7396 17.9936 13.1708V17.5839H14.7089V13.1708C14.7089 13.0127 14.7449 12.8546 14.8167 12.718C15.4492 11.4961 15.7871 10.1305 15.7871 8.77924V2.06611H15.7799ZM14.1124 8.20424C13.983 8.06768 13.9111 7.88799 13.9183 7.70111C13.9183 7.51424 13.9974 7.33455 14.1339 7.20518C14.2633 7.0758 14.443 7.01111 14.6227 7.01111C14.6299 7.01111 14.6371 7.01111 14.6442 7.01111C14.6514 7.01111 14.6586 7.01111 14.6586 7.01111V8.41986H14.6083C14.4142 8.41268 14.2417 8.3408 14.1124 8.20424ZM9.33986 26.0292C9.2033 25.7489 8.86549 25.6339 8.58518 25.7705L6.0983 26.9924C6.06236 27.0139 6.02643 27.0355 5.99768 27.0571L5.0058 27.8549V26.9852C5.0058 26.5611 5.22143 26.173 5.5808 25.943L12.948 21.3071C13.0271 21.2567 13.0917 21.1849 13.1421 21.1058L14.4717 18.7052H17.5049L15.8805 21.1417C15.2049 22.1552 14.2633 22.9817 13.1708 23.5208L12.0064 24.0886C11.7261 24.2252 11.6111 24.563 11.7477 24.8433C11.8842 25.1236 12.2221 25.2386 12.5024 25.1021L13.6667 24.5342C14.9389 23.9089 16.0314 22.953 16.8149 21.7742L17.2533 21.113L21.8461 22.802V27.9914C21.8461 28.1567 21.8749 28.3221 21.918 28.473H6.03361L6.65174 27.9771L9.08111 26.7839C9.36143 26.6474 9.47643 26.3096 9.33986 26.0292ZM23.4489 28.473C23.183 28.473 22.9674 28.2574 22.9674 27.9914V22.4067C22.9674 22.1695 22.8236 21.9611 22.6008 21.8821L17.893 20.1499L18.5039 19.2299L18.7842 18.813L23.0896 20.1499C23.7436 20.3511 24.1821 20.9477 24.1821 21.6377V26.7911C24.1821 26.8846 24.2036 26.978 24.2539 27.0642L25.0445 28.4802H23.4489V28.473Z" fill="#27201D"/>
</svg>
